<?xml version="1.0" encoding="UTF-8"?>
<svg id="Camada_1" data-name="Camada 1" xmlns="http://www.w3.org/2000/svg" viewBox="0 0 48 48">
  <defs>
    <style>
      .cls-1 {
        fill: #b8ecff;
      }

      .cls-2 {
        fill: navy;
      }

      .cls-3 {
        fill: #68c3d5;
      }
    </style>
  </defs>
  <path id="path61" class="cls-2" d="M34.02,35.37s3.01,9.47,4.43,9.91c2.2.74,3.21-1.15,3.21-1.15,0,0-.1,4.05-3.85,2.8-2.57-.84-4.73-9.1-4.73-9.1l.95-2.5v.03Z"/>
  <path id="path38" class="cls-2" d="M27.73.9c-8.51.41-15.3,3.48-18.38,11.32-2.03,6.25.68,9.86-.34,11.65-1.01,1.82-4.66,4.7-4.7,5.91-.03.98,4.36,2.09,4.36,2.09,0,0,.57,1.55.1,3.24-.2.81,1.35,1.11,1.35,1.11,0,0-.61.54-.64.88,0,1.08,1.38,1.66,1.82,2.63.84,2.06.91,3.99,1.55,4.63,2.26,2.3,10.2-.88,18.11-4.73,1.69-.81,2.63-4.93,2.63-4.93-1.38.37-2.84.54-4.36.54-9.53,0-17.23-7.7-17.23-17.23C12.02,9.04,18.81,1.98,27.63.87l.1-.03h0v.07Z"/>
  <g>
    <g>
      <path class="cls-1" d="M19.3,13.13c-.23-2.46,0-4.66.65-6.38-1.85,1.51-3.27,3.44-4.19,5.59.43.58,1.69.9,3.54.79Z"/>
      <path class="cls-1" d="M19.49,14.68c-1.78.13-3.31-.08-4.31-.75-.85,2.89-.82,6.07.28,9.08l5.68-2.42c-.8-2.03-1.35-4.03-1.66-5.91Z"/>
      <path class="cls-1" d="M24.17,26.35c-.87-1.3-1.69-2.75-2.4-4.33l-5.68,2.42c1.43,2.92,3.74,5.16,6.47,6.55.17-.8.66-1.62,1.37-2.44-.12-.27-.18-.58-.18-.89,0-.49.16-.94.42-1.31Z"/>
      <path class="cls-1" d="M26.01,29.91c-.36,0-.69-.09-.99-.24-.64.77-.97,1.46-.97,1.96,2.1.79,4.39,1.09,6.68.84-1.27-.58-2.57-1.52-3.81-2.76-.28.12-.59.2-.91.2Z"/>
      <path class="cls-1" d="M28.16,27c.06.21.11.42.11.65,0,.35-.09.68-.23.97,2.03,2.03,4.14,3.14,5.88,2.94l-2.67-6.27c-1.17.54-2.2,1.12-3.09,1.7Z"/>
      <path class="cls-1" d="M26.01,25.39c.45,0,.88.14,1.23.37,1.05-.69,2.21-1.33,3.4-1.89l-2.04-4.77-5.41,2.31c.67,1.47,1.44,2.84,2.27,4.06.17-.04.35-.07.54-.07Z"/>
      <path class="cls-1" d="M21.06,14.49c.29,1.75.79,3.61,1.53,5.49l5.41-2.31-1.95-4.58c-1.66.64-3.38,1.13-4.98,1.4Z"/>
      <path class="cls-1" d="M25.43,11.65l-2.7-6.33c-1.55,1.29-2.19,4.15-1.87,7.63,1.34-.22,2.88-.64,4.57-1.3Z"/>
      <path class="cls-1" d="M36.51,14.03l4.03-1.72s-.01-.09-.01-.14c0-.76.38-1.43.95-1.84-1.41-2.27-3.38-4.05-5.65-5.22-.14.82-.63,1.68-1.37,2.53.22.35.35.75.35,1.19,0,.49-.16.95-.43,1.32.77,1.18,1.49,2.47,2.13,3.87Z"/>
      <path class="cls-1" d="M32.56,6.58c.24,0,.46.05.68.11.79-.92,1.16-1.72,1.06-2.26-2.18-.83-4.55-1.14-6.93-.84,1.45.61,2.93,1.69,4.34,3.16.26-.11.55-.17.85-.17Z"/>
      <path class="cls-1" d="M30.33,9.16c-.01-.1-.03-.21-.03-.31,0-.37.1-.71.25-1.02-2.1-2.19-4.32-3.42-6.14-3.22l2.7,6.33c1.23-.57,2.3-1.17,3.22-1.78Z"/>
      <path class="cls-1" d="M35.08,14.64c-.6-1.3-1.28-2.5-2-3.61-.17.04-.34.07-.53.07-.58,0-1.1-.22-1.5-.58-1.03.68-2.17,1.3-3.34,1.85l1.95,4.58,5.41-2.31Z"/>
      <path class="cls-1" d="M37.29,21.76c-.29-1.81-.82-3.75-1.59-5.68l-5.41,2.31,2.04,4.77c1.65-.64,3.36-1.13,4.97-1.4Z"/>
      <path class="cls-1" d="M32.93,24.59l2.67,6.27c1.54-1.28,2.18-4.11,1.88-7.56-1.34.22-2.87.64-4.55,1.29Z"/>
      <path class="cls-1" d="M39.04,23.11c.21,2.32.02,4.41-.57,6.07,1.77-1.48,3.13-3.34,4.01-5.4-.51-.5-1.73-.77-3.45-.66Z"/>
      <path class="cls-1" d="M43.22,14.4c-.14.03-.28.04-.43.04-.64,0-1.22-.27-1.63-.7l-4.04,1.72c.84,2.1,1.41,4.16,1.72,6.1,1.72-.13,3.2.07,4.2.68.76-2.5.85-5.21.17-7.85Z"/>
    </g>
    <g>
      <path class="cls-3" d="M19.3,13.13c-.23-2.46,0-4.66.65-6.38-1.85,1.51-3.27,3.44-4.19,5.59.43.58,1.69.9,3.54.79Z"/>
      <path class="cls-3" d="M19.49,14.68c-1.78.13-3.31-.08-4.31-.75-.85,2.89-.82,6.07.28,9.08l5.68-2.42c-.8-2.03-1.35-4.03-1.66-5.91Z"/>
      <path class="cls-3" d="M24.17,26.35c-.87-1.3-1.69-2.75-2.4-4.33l-5.68,2.42c1.43,2.92,3.74,5.16,6.47,6.55.17-.8.66-1.62,1.37-2.44-.12-.27-.18-.58-.18-.89,0-.49.16-.94.42-1.31Z"/>
      <path class="cls-3" d="M26.01,29.91c-.36,0-.69-.09-.99-.24-.64.77-.97,1.46-.97,1.96,2.1.79,4.39,1.09,6.68.84-1.27-.58-2.57-1.52-3.81-2.76-.28.12-.59.2-.91.2Z"/>
      <path class="cls-3" d="M28.16,27c.06.21.11.42.11.65,0,.35-.09.68-.23.97,2.03,2.03,4.14,3.14,5.88,2.94l-2.67-6.27c-1.17.54-2.2,1.12-3.09,1.7Z"/>
      <path class="cls-3" d="M26.01,25.39c.45,0,.88.14,1.23.37,1.05-.69,2.21-1.33,3.4-1.89l-2.04-4.77-5.41,2.31c.67,1.47,1.44,2.84,2.27,4.06.17-.04.35-.07.54-.07Z"/>
      <path class="cls-3" d="M21.06,14.49c.29,1.75.79,3.61,1.53,5.49l5.41-2.31-1.95-4.58c-1.66.64-3.38,1.13-4.98,1.4Z"/>
      <path class="cls-3" d="M25.43,11.65l-2.7-6.33c-1.55,1.29-2.19,4.15-1.87,7.63,1.34-.22,2.88-.64,4.57-1.3Z"/>
      <path class="cls-3" d="M36.51,14.03l4.03-1.72s-.01-.09-.01-.14c0-.76.38-1.43.95-1.84-1.41-2.27-3.38-4.05-5.65-5.22-.14.82-.63,1.68-1.37,2.53.22.35.35.75.35,1.19,0,.49-.16.95-.43,1.32.77,1.18,1.49,2.47,2.13,3.87Z"/>
      <path class="cls-3" d="M32.56,6.58c.24,0,.46.05.68.11.79-.92,1.16-1.72,1.06-2.26-2.18-.83-4.55-1.14-6.93-.84,1.45.61,2.93,1.69,4.34,3.16.26-.11.55-.17.85-.17Z"/>
      <path class="cls-3" d="M30.33,9.16c-.01-.1-.03-.21-.03-.31,0-.37.1-.71.25-1.02-2.1-2.19-4.32-3.42-6.14-3.22l2.7,6.33c1.23-.57,2.3-1.17,3.22-1.78Z"/>
      <path class="cls-3" d="M35.08,14.64c-.6-1.3-1.28-2.5-2-3.61-.17.04-.34.07-.53.07-.58,0-1.1-.22-1.5-.58-1.03.68-2.17,1.3-3.34,1.85l1.95,4.58,5.41-2.31Z"/>
      <path class="cls-3" d="M37.29,21.76c-.29-1.81-.82-3.75-1.59-5.68l-5.41,2.31,2.04,4.77c1.65-.64,3.36-1.13,4.97-1.4Z"/>
      <path class="cls-3" d="M32.93,24.59l2.67,6.27c1.54-1.28,2.18-4.11,1.88-7.56-1.34.22-2.87.64-4.55,1.29Z"/>
      <path class="cls-3" d="M39.04,23.11c.21,2.32.02,4.41-.57,6.07,1.77-1.48,3.13-3.34,4.01-5.4-.51-.5-1.73-.77-3.45-.66Z"/>
      <path class="cls-3" d="M43.22,14.4c-.14.03-.28.04-.43.04-.64,0-1.22-.27-1.63-.7l-4.04,1.72c.84,2.1,1.41,4.16,1.72,6.1,1.72-.13,3.2.07,4.2.68.76-2.5.85-5.21.17-7.85Z"/>
    </g>
  </g>
</svg>