<?xml version="1.0" encoding="UTF-8"?>
<svg id="Camada_1" data-name="Camada 1" xmlns="http://www.w3.org/2000/svg" viewBox="0 0 150 73">
  <defs>
    <style>
      .cls-1 {
        fill: #b8ecff;
      }

      .cls-2 {
        fill: #fff;
      }

      .cls-3 {
        isolation: isolate;
      }

      .cls-4 {
        fill: #3a3a3a;
      }

      .cls-5 {
        fill: navy;
      }

      .cls-6 {
        fill: #68c3d5;
      }

      .cls-7 {
        fill: #6724ff;
      }
    </style>
  </defs>
  <g class="cls-3">
    <g class="cls-3">
      <path class="cls-4" d="M42.14,22.78h3.06v15.55h-3.06v-15.55Z"/>
      <path class="cls-4" d="M63.14,38.96l-11.79-10.65.91.51.06,9.51h-3.11v-16.16h.13l11.53,10.6-.68-.3-.06-9.7h3.08v16.18h-.08Z"/>
      <path class="cls-4" d="M66.29,30.57c0-1.07.2-2.08.61-3.04.41-.96.97-1.81,1.7-2.55.73-.74,1.57-1.32,2.52-1.74.96-.42,1.99-.63,3.08-.63s2.11.21,3.06.63c.96.42,1.81,1,2.55,1.74s1.32,1.59,1.73,2.55c.42.96.62,1.97.62,3.04s-.21,2.13-.62,3.08c-.42.96-.99,1.8-1.73,2.52-.74.73-1.59,1.29-2.55,1.7-.96.41-1.98.61-3.06.61s-2.13-.2-3.08-.61c-.96-.41-1.8-.97-2.52-1.7-.73-.73-1.29-1.57-1.7-2.52-.41-.96-.61-1.99-.61-3.08ZM69.46,30.57c0,.69.12,1.33.37,1.93.25.6.59,1.13,1.04,1.58.44.46.96.81,1.54,1.07.58.25,1.22.38,1.91.38s1.28-.13,1.85-.38c.57-.25,1.07-.61,1.49-1.07.42-.46.75-.99.99-1.58s.36-1.24.36-1.93-.12-1.36-.37-1.96c-.25-.61-.58-1.14-1.01-1.6-.43-.46-.93-.81-1.51-1.07-.58-.25-1.2-.38-1.88-.38s-1.3.13-1.88.38c-.58.25-1.08.61-1.52,1.07-.44.46-.77.99-1.01,1.6-.24.61-.36,1.26-.36,1.96Z"/>
      <path class="cls-4" d="M86.52,22.78l4.54,11.2-1.77-.36,4.12-10.84h3.63l-7.1,16.27-7.1-16.27h3.68Z"/>
      <path class="cls-4" d="M95.86,38.33l7.01-16.16h.17l7.01,16.16h-3.55l-4.48-11.37,2.22-1.52-5.37,12.89h-3.02ZM100.66,32.71h4.67l1.08,2.58h-6.7l.95-2.58Z"/>
      <path class="cls-4" d="M109.99,22.78h10.48v2.96h-3.78v12.59h-3.06v-12.59h-3.63v-2.96Z"/>
      <path class="cls-4" d="M123.43,22.78h10.6v2.96h-7.54v3.32h6.68v2.96h-6.68v3.36h7.84v2.96h-10.9v-15.55Z"/>
      <path class="cls-4" d="M149.16,37.04c-.17.14-.48.33-.94.57-.46.24-1.02.45-1.68.63-.66.18-1.39.27-2.2.25-1.23-.03-2.32-.25-3.29-.67-.96-.42-1.78-.98-2.45-1.7s-1.18-1.54-1.53-2.47c-.35-.93-.53-1.92-.53-2.98,0-1.18.18-2.27.54-3.25.36-.99.87-1.84,1.54-2.56.67-.72,1.47-1.27,2.4-1.67.93-.39,1.96-.59,3.08-.59,1.04,0,1.96.14,2.77.42.8.28,1.46.58,1.96.91l-1.2,2.89c-.35-.27-.82-.55-1.4-.83-.58-.29-1.26-.43-2.02-.43-.59,0-1.16.12-1.7.37-.54.25-1.02.6-1.44,1.05-.42.45-.74.98-.98,1.57-.24.6-.36,1.25-.36,1.95,0,.75.11,1.43.33,2.05s.53,1.15.94,1.59c.41.44.9.79,1.47,1.02.57.24,1.22.36,1.93.36.83,0,1.54-.13,2.13-.4.59-.27,1.04-.55,1.35-.84l1.27,2.75Z"/>
    </g>
  </g>
  <g>
    <rect class="cls-7" x="98.68" y="43.77" width="51.14" height="17.41" rx="3.87" ry="3.87"/>
    <g>
      <path class="cls-2" d="M104.08,53.93v-2.15c0-1.67,1.34-3.01,3-3.01s3,1.34,3,3.01v2.15c0,1.67-1.34,3.01-3,3.01s-3-1.34-3-3.01ZM108.99,54v-2.29c0-1.06-.86-1.92-1.92-1.92s-1.92.86-1.92,1.92v2.29c0,1.06.86,1.92,1.92,1.92s1.92-.86,1.92-1.92Z"/>
      <path class="cls-2" d="M112.21,56.56v-7.41c0-.11.08-.19.19-.19h.69c.11,0,.19.08.19.19v.76c.48-.76,1.28-1.15,2.22-1.15,1.57,0,2.62,1.05,2.62,2.61v5.19c0,.11-.08.19-.19.19h-.69c-.11,0-.19-.08-.19-.19v-4.98c0-1.2-.7-1.81-1.71-1.81-1.2,0-2.06.83-2.06,2.28v4.51c0,.11-.08.19-.19.19h-.69c-.11,0-.19-.08-.19-.19Z"/>
      <path class="cls-2" d="M120.86,56.27v-8.96h-1.28c-.11,0-.19-.08-.19-.19v-.63c0-.11.08-.19.19-.19h1.86c.28,0,.5.22.5.5v8.96h1.46c.11,0,.19.08.19.19v.63c0,.11-.08.19-.19.19h-2.04c-.28,0-.5-.22-.5-.5Z"/>
      <path class="cls-2" d="M126.19,56.27v-6.29h-1.44c-.11,0-.19-.08-.19-.19v-.63c0-.11.08-.19.19-.19h2.02c.28,0,.5.22.5.5v6.29h1.42c.11,0,.19.08.19.19v.63c0,.11-.08.19-.19.19h-2c-.28,0-.5-.22-.5-.5ZM126.2,47.68v-1.2c0-.11.08-.19.19-.19h.66c.11,0,.19.08.19.19v1.2c0,.11-.08.19-.19.19h-.66c-.11,0-.19-.08-.19-.19Z"/>
      <path class="cls-2" d="M130.6,56.56v-7.41c0-.11.08-.19.19-.19h.69c.11,0,.19.08.19.19v.76c.48-.76,1.28-1.15,2.22-1.15,1.57,0,2.62,1.05,2.62,2.61v5.19c0,.11-.08.19-.19.19h-.69c-.11,0-.19-.08-.19-.19v-4.98c0-1.2-.7-1.81-1.71-1.81-1.2,0-2.06.83-2.06,2.28v4.51c0,.11-.08.19-.19.19h-.69c-.11,0-.19-.08-.19-.19Z"/>
      <path class="cls-2" d="M138.53,53.75v-1.97c0-1.67,1.34-3.01,3-3.01s3,1.34,3,3.01v.94c0,.28-.22.5-.5.5h-4.42v.61c0,1.06.86,1.92,1.92,1.92h2c.11,0,.19.08.19.19v.63c0,.11-.08.19-.19.19h-2c-1.66,0-3-1.34-3-3.01ZM143.44,52.22v-.51c0-1.06-.86-1.92-1.92-1.92s-1.92.86-1.92,1.92v.51h3.84Z"/>
    </g>
  </g>
  <g>
    <path id="path61" class="cls-5" d="M26.48,42.19s3.07,9.02,4.35,9.42c1.97.67,2.87-1.03,2.87-1.03,0,0-.09,3.63-3.45,2.51-2.3-.76-4.62-8.69-4.62-8.69l.85-2.24v.03Z"/>
    <path id="path38" class="cls-5" d="M21.22,11.87c-7.62.36-13.7,3.12-16.46,10.13-1.81,5.6.6,8.83-.3,10.44-.91,1.63-4.17,4.2-4.2,5.29-.03.88,3.9,1.88,3.9,1.88,0,0,.51,1.39.09,2.9-.18.73,1.21,1,1.21,1,0,0-.54.48-.57.79,0,.97,1.24,1.48,1.63,2.36.76,1.85.82,3.57,1.39,4.14,2.03,2.06,9.14-.79,16.21-4.23,1.51-.73,2.36-4.42,2.36-4.42-1.24.33-2.54.48-3.9.48-8.53,0-15.43-6.9-15.43-15.43,0-8.05,6.08-14.37,13.97-15.37l.09-.03h0v.06Z"/>
    <g>
      <g>
        <path class="cls-1" d="M13.67,22.83c-.21-2.21,0-4.18.58-5.71-1.66,1.35-2.93,3.08-3.75,5,.38.52,1.51.81,3.17.71Z"/>
        <path class="cls-1" d="M13.85,24.21c-1.59.12-2.97-.08-3.86-.67-.76,2.59-.73,5.43.25,8.13l5.09-2.17c-.72-1.82-1.21-3.61-1.49-5.29Z"/>
        <path class="cls-1" d="M18.03,34.66c-.78-1.16-1.51-2.46-2.15-3.88l-5.09,2.17c1.28,2.62,3.35,4.62,5.8,5.86.16-.71.6-1.45,1.23-2.19-.11-.25-.16-.51-.16-.8,0-.44.14-.84.38-1.17Z"/>
        <path class="cls-1" d="M19.68,37.86c-.32,0-.62-.08-.89-.21-.57.69-.87,1.3-.86,1.76,1.88.7,3.93.98,5.98.75-1.14-.52-2.3-1.36-3.41-2.47-.25.11-.53.17-.82.17Z"/>
        <path class="cls-1" d="M21.61,35.25c.06.19.09.38.09.58,0,.31-.08.61-.2.87,1.81,1.81,3.71,2.81,5.27,2.64l-2.39-5.61c-1.05.49-1.97,1-2.77,1.52Z"/>
        <path class="cls-1" d="M19.68,33.8c.41,0,.78.12,1.1.33.94-.62,1.98-1.19,3.05-1.69l-1.82-4.27-4.85,2.07c.6,1.32,1.29,2.54,2.04,3.63.16-.04.32-.06.48-.06Z"/>
        <path class="cls-1" d="M15.25,24.04c.26,1.57.71,3.24,1.37,4.91l4.84-2.07-1.75-4.1c-1.48.58-3.02,1.01-4.46,1.25Z"/>
        <path class="cls-1" d="M19.17,21.5l-2.42-5.67c-1.39,1.16-1.96,3.71-1.67,6.83,1.2-.2,2.58-.57,4.09-1.16Z"/>
        <path class="cls-1" d="M29.09,23.63l3.61-1.54s-.01-.08-.01-.12c0-.68.34-1.28.85-1.65-1.26-2.03-3.02-3.62-5.06-4.68-.13.74-.57,1.51-1.22,2.27.19.31.31.67.31,1.07,0,.44-.15.85-.39,1.18.69,1.05,1.33,2.21,1.91,3.46Z"/>
        <path class="cls-1" d="M25.55,16.96c.21,0,.41.04.61.1.71-.82,1.04-1.54.95-2.03-1.95-.74-4.08-1.02-6.2-.76,1.3.54,2.62,1.52,3.88,2.83.24-.1.49-.15.76-.15Z"/>
        <path class="cls-1" d="M23.55,19.27c-.01-.09-.03-.18-.03-.28,0-.33.09-.64.23-.91-1.88-1.96-3.87-3.07-5.5-2.88l2.42,5.67c1.1-.51,2.06-1.05,2.88-1.6Z"/>
        <path class="cls-1" d="M27.81,24.18c-.54-1.16-1.14-2.24-1.79-3.23-.15.04-.31.06-.47.06-.52,0-.99-.2-1.34-.52-.93.61-1.94,1.17-2.99,1.65l1.75,4.1,4.84-2.07Z"/>
        <path class="cls-1" d="M29.78,30.55c-.26-1.62-.73-3.35-1.42-5.09l-4.85,2.07,1.82,4.27c1.48-.57,3.01-1.01,4.45-1.25Z"/>
        <path class="cls-1" d="M25.88,33.08l2.39,5.61c1.38-1.15,1.95-3.68,1.68-6.77-1.2.2-2.57.57-4.07,1.16Z"/>
        <path class="cls-1" d="M31.35,31.76c.19,2.08.01,3.95-.51,5.43,1.58-1.32,2.8-2.99,3.6-4.84-.46-.45-1.55-.69-3.09-.59Z"/>
        <path class="cls-1" d="M35.09,23.96c-.12.02-.25.04-.38.04-.57,0-1.09-.24-1.46-.63l-3.62,1.54c.75,1.88,1.27,3.73,1.54,5.47,1.54-.11,2.87.06,3.76.61.68-2.24.76-4.66.15-7.03Z"/>
      </g>
      <g>
        <path class="cls-6" d="M13.67,22.83c-.21-2.21,0-4.18.58-5.71-1.66,1.35-2.93,3.08-3.75,5,.38.52,1.51.81,3.17.71Z"/>
        <path class="cls-6" d="M13.85,24.21c-1.59.12-2.97-.08-3.86-.67-.76,2.59-.73,5.43.25,8.13l5.09-2.17c-.72-1.82-1.21-3.61-1.49-5.29Z"/>
        <path class="cls-6" d="M18.03,34.66c-.78-1.16-1.51-2.46-2.15-3.88l-5.09,2.17c1.28,2.62,3.35,4.62,5.8,5.86.16-.71.6-1.45,1.23-2.19-.11-.25-.16-.51-.16-.8,0-.44.14-.84.38-1.17Z"/>
        <path class="cls-6" d="M19.68,37.86c-.32,0-.62-.08-.89-.21-.57.69-.87,1.3-.86,1.76,1.88.7,3.93.98,5.98.75-1.14-.52-2.3-1.36-3.41-2.47-.25.11-.53.17-.82.17Z"/>
        <path class="cls-6" d="M21.61,35.25c.06.19.09.38.09.58,0,.31-.08.61-.2.87,1.81,1.81,3.71,2.81,5.27,2.64l-2.39-5.61c-1.05.49-1.97,1-2.77,1.52Z"/>
        <path class="cls-6" d="M19.68,33.8c.41,0,.78.12,1.1.33.94-.62,1.98-1.19,3.05-1.69l-1.82-4.27-4.85,2.07c.6,1.32,1.29,2.54,2.04,3.63.16-.04.32-.06.48-.06Z"/>
        <path class="cls-6" d="M15.25,24.04c.26,1.57.71,3.24,1.37,4.91l4.84-2.07-1.75-4.1c-1.48.58-3.02,1.01-4.46,1.25Z"/>
        <path class="cls-6" d="M19.17,21.5l-2.42-5.67c-1.39,1.16-1.96,3.71-1.67,6.83,1.2-.2,2.58-.57,4.09-1.16Z"/>
        <path class="cls-6" d="M29.09,23.63l3.61-1.54s-.01-.08-.01-.12c0-.68.34-1.28.85-1.65-1.26-2.03-3.02-3.62-5.06-4.68-.13.74-.57,1.51-1.22,2.27.19.31.31.67.31,1.07,0,.44-.15.85-.39,1.18.69,1.05,1.33,2.21,1.91,3.46Z"/>
        <path class="cls-6" d="M25.55,16.96c.21,0,.41.04.61.1.71-.82,1.04-1.54.95-2.03-1.95-.74-4.08-1.02-6.2-.76,1.3.54,2.62,1.52,3.88,2.83.24-.1.49-.15.76-.15Z"/>
        <path class="cls-6" d="M23.55,19.27c-.01-.09-.03-.18-.03-.28,0-.33.09-.64.23-.91-1.88-1.96-3.87-3.07-5.5-2.88l2.42,5.67c1.1-.51,2.06-1.05,2.88-1.6Z"/>
        <path class="cls-6" d="M27.81,24.18c-.54-1.16-1.14-2.24-1.79-3.23-.15.04-.31.06-.47.06-.52,0-.99-.2-1.34-.52-.93.61-1.94,1.17-2.99,1.65l1.75,4.1,4.84-2.07Z"/>
        <path class="cls-6" d="M29.78,30.55c-.26-1.62-.73-3.35-1.42-5.09l-4.85,2.07,1.82,4.27c1.48-.57,3.01-1.01,4.45-1.25Z"/>
        <path class="cls-6" d="M25.88,33.08l2.39,5.61c1.38-1.15,1.95-3.68,1.68-6.77-1.2.2-2.57.57-4.07,1.16Z"/>
        <path class="cls-6" d="M31.35,31.76c.19,2.08.01,3.95-.51,5.43,1.58-1.32,2.8-2.99,3.6-4.84-.46-.45-1.55-.69-3.09-.59Z"/>
        <path class="cls-6" d="M35.09,23.96c-.12.02-.25.04-.38.04-.57,0-1.09-.24-1.46-.63l-3.62,1.54c.75,1.88,1.27,3.73,1.54,5.47,1.54-.11,2.87.06,3.76.61.68-2.24.76-4.66.15-7.03Z"/>
      </g>
    </g>
  </g>
</svg>